<mxfile host="app.diagrams.net" agent="Mozilla/5.0 (Windows NT 10.0; Win64; x64) AppleWebKit/537.36 (KHTML, like Gecko) Chrome/141.0.0.0 Safari/537.36 Edg/141.0.0.0" version="28.2.7">
  <diagram name="letronas" id="e4EtkxpIm7_sDTS4HFWQ">
    <mxGraphModel dx="591" dy="756" grid="1" gridSize="10" guides="1" tooltips="1" connect="1" arrows="1" fold="1" page="1" pageScale="1" pageWidth="827" pageHeight="1169" math="0" shadow="0">
      <root>
        <mxCell id="0" />
        <mxCell id="1" parent="0" />
        <mxCell id="bP15YRuTJW6j496chkiZ-39" style="edgeStyle=orthogonalEdgeStyle;rounded=0;orthogonalLoop=1;jettySize=auto;html=1;exitX=0.5;exitY=1;exitDx=0;exitDy=0;entryX=0.5;entryY=0;entryDx=0;entryDy=0;" parent="1" source="bP15YRuTJW6j496chkiZ-30" target="bP15YRuTJW6j496chkiZ-32" edge="1">
          <mxGeometry relative="1" as="geometry" />
        </mxCell>
        <mxCell id="bP15YRuTJW6j496chkiZ-30" value="Juego 2" style="rounded=0;whiteSpace=wrap;html=1;fillColor=#dae8fc;strokeColor=#6c8ebf;" parent="1" vertex="1">
          <mxGeometry x="1120" y="20" width="120" height="60" as="geometry" />
        </mxCell>
        <mxCell id="bP15YRuTJW6j496chkiZ-38" style="edgeStyle=orthogonalEdgeStyle;rounded=0;orthogonalLoop=1;jettySize=auto;html=1;exitX=0.5;exitY=1;exitDx=0;exitDy=0;entryX=0.5;entryY=0;entryDx=0;entryDy=0;" parent="1" source="bP15YRuTJW6j496chkiZ-32" target="bP15YRuTJW6j496chkiZ-37" edge="1">
          <mxGeometry relative="1" as="geometry" />
        </mxCell>
        <mxCell id="bP15YRuTJW6j496chkiZ-49" value="SI" style="edgeLabel;html=1;align=center;verticalAlign=middle;resizable=0;points=[];" parent="bP15YRuTJW6j496chkiZ-38" vertex="1" connectable="0">
          <mxGeometry x="-0.1667" y="-2" relative="1" as="geometry">
            <mxPoint as="offset" />
          </mxGeometry>
        </mxCell>
        <mxCell id="bP15YRuTJW6j496chkiZ-42" style="edgeStyle=orthogonalEdgeStyle;rounded=0;orthogonalLoop=1;jettySize=auto;html=1;exitX=1;exitY=0.5;exitDx=0;exitDy=0;" parent="1" source="bP15YRuTJW6j496chkiZ-32" target="bP15YRuTJW6j496chkiZ-33" edge="1">
          <mxGeometry relative="1" as="geometry" />
        </mxCell>
        <mxCell id="bP15YRuTJW6j496chkiZ-47" value="NO" style="edgeLabel;html=1;align=center;verticalAlign=middle;resizable=0;points=[];" parent="bP15YRuTJW6j496chkiZ-42" vertex="1" connectable="0">
          <mxGeometry x="0.0889" y="-3" relative="1" as="geometry">
            <mxPoint y="-3" as="offset" />
          </mxGeometry>
        </mxCell>
        <mxCell id="bP15YRuTJW6j496chkiZ-32" value="estan en la&lt;br&gt;posicion&lt;br&gt;correcta" style="rhombus;whiteSpace=wrap;html=1;fillColor=#a20025;fontColor=#ffffff;strokeColor=#6F0000;" parent="1" vertex="1">
          <mxGeometry x="1120" y="200" width="120" height="75" as="geometry" />
        </mxCell>
        <mxCell id="bP15YRuTJW6j496chkiZ-43" style="edgeStyle=orthogonalEdgeStyle;rounded=0;orthogonalLoop=1;jettySize=auto;html=1;" parent="1" source="bP15YRuTJW6j496chkiZ-33" edge="1">
          <mxGeometry relative="1" as="geometry">
            <mxPoint x="1180" y="120" as="targetPoint" />
            <Array as="points">
              <mxPoint x="1390" y="110" />
              <mxPoint x="1180" y="110" />
            </Array>
          </mxGeometry>
        </mxCell>
        <mxCell id="bP15YRuTJW6j496chkiZ-33" value="Sigue intentandolo&lt;br&gt;&lt;br&gt;MUEVE LETRA" style="rounded=0;whiteSpace=wrap;html=1;fillColor=#e3c800;fontColor=#000000;strokeColor=#B09500;" parent="1" vertex="1">
          <mxGeometry x="1330" y="207.5" width="120" height="60" as="geometry" />
        </mxCell>
        <mxCell id="bP15YRuTJW6j496chkiZ-37" value="GANASTE" style="rounded=0;whiteSpace=wrap;html=1;fillColor=#d80073;fontColor=#ffffff;strokeColor=#A50040;" parent="1" vertex="1">
          <mxGeometry x="1120" y="330" width="120" height="60" as="geometry" />
        </mxCell>
      </root>
    </mxGraphModel>
  </diagram>
</mxfile>
